<svg fill="#FFFFFF" xmlns="http://www.w3.org/2000/svg"  viewBox="0 0 128 128" width="50px" height="50px"><path d="M 124 1.0019531 C 123.2325 1.0019531 122.46586 1.2958594 121.88086 1.8808594 L 61.880859 61.880859 C 60.710859 63.050859 60.710859 64.949141 61.880859 66.119141 C 62.460859 66.709141 63.23 67 64 67 C 64.77 67 65.539141 66.709141 66.119141 66.119141 L 126.11914 6.1191406 C 127.28914 4.9491406 127.28914 3.0508594 126.11914 1.8808594 C 125.53414 1.2958594 124.7675 1.0019531 124 1.0019531 z M 34 11 C 21.32 11 11 21.32 11 34 L 11 94 C 11 106.68 21.32 117 34 117 L 94 117 C 106.68 117 117 106.68 117 94 L 117 44 C 117 42.34 115.66 41 114 41 C 112.34 41 111 42.34 111 44 L 111 94 C 111 103.37 103.37 111 94 111 L 34 111 C 24.63 111 17 103.37 17 94 L 17 34 C 17 24.63 24.63 17 34 17 L 84 17 C 85.66 17 87 15.66 87 14 C 87 12.34 85.66 11 84 11 L 34 11 z"/></svg>